<svg xmlns="http://www.w3.org/2000/svg" xmlns:svg="http://www.w3.org/2000/svg" id="svg8" width="118.724" height="107.441" version="1.1" viewBox="0 0 31.412 28.427"><metadata id="metadata5"/><g id="layer1" transform="translate(-10.149596,-260.42124)"><g id="g821" transform="translate(4.6772167)"><path style="fill:#ccc;stroke:none;stroke-width:.22791502px;stroke-linecap:butt;stroke-linejoin:miter;stroke-opacity:1" id="path817" d="m 34.706713,281.95262 c 0,0 0.05088,-0.47786 -0.454138,-0.79248 -0.598885,-0.37309 -1.792456,-0.65695 -2.135937,-1.62493 -0.633129,-1.78428 -1.208702,-12.36663 -3.568549,-14.5538 -2.359846,-2.18717 -7.194655,-4.17785 -7.194655,-4.17785 h -0.345341 c 0,0 -4.834807,1.99068 -7.194655,4.17785 -2.359846,2.18717 -2.935418,12.76952 -3.568547,14.5538 -0.3187212,0.89821 -1.5484903,1.15935 -2.1196334,1.54022 -0.5634184,0.37571 -0.4704434,0.87719 -0.4704434,0.87719 z"/><path style="fill:#ccc;fill-rule:evenodd;stroke:none;stroke-width:.32969889" id="path841" d="m 25.454528,283.65527 a 4.158649,5.2277269 0 0 1 -2.079324,4.52735 4.158649,5.2277269 0 0 1 -4.158649,0 4.158649,5.2277269 0 0 1 -2.079325,-4.52735 l 4.158649,0 z"/></g></g></svg>